<svg width="31" height="19" viewBox="0 0 31 19" fill="none" xmlns="http://www.w3.org/2000/svg">
<path fill-rule="evenodd" clip-rule="evenodd" d="M30.2896 1.68275C30.504 0.977502 30.2896 0.458252 29.2627 0.458252H25.8721C25.0093 0.458252 24.6114 0.90646 24.3957 1.40117C24.3957 1.40117 22.6713 5.52934 20.2288 8.21084C19.4383 8.98842 19.0792 9.23513 18.6478 9.23513C18.4321 9.23513 18.1079 8.98842 18.1079 8.28188V1.68275C18.1079 0.835419 17.8702 0.458252 17.152 0.458252H11.82C11.2814 0.458252 10.9572 0.850919 10.9572 1.22421C10.9572 2.02634 12.1791 2.21234 12.3044 4.47017V9.37592C12.3044 10.4519 12.1068 10.6469 11.6754 10.6469C10.5258 10.6469 7.72933 6.49938 6.06954 1.75379C5.74792 0.830252 5.42242 0.458252 4.55571 0.458252H1.1625C0.19375 0.458252 0 0.90646 0 1.40117C0 2.28209 1.14958 6.65825 5.35396 12.4462C8.15687 16.3987 12.1029 18.5416 15.6976 18.5416C17.8534 18.5416 18.1195 18.0663 18.1195 17.246V14.2584C18.1195 13.3065 18.3236 13.1166 19.0069 13.1166C19.5106 13.1166 20.3722 13.3646 22.3846 15.2698C24.6837 17.5289 25.0622 18.5416 26.3565 18.5416H29.7471C30.7158 18.5416 31.2015 18.0663 30.9225 17.1259C30.6151 16.1908 29.5172 14.8332 28.0615 13.2225C27.271 12.3054 26.0852 11.3173 25.7248 10.8226C25.2224 10.1884 25.3657 9.9055 25.7248 9.34104C25.7248 9.34104 29.8582 3.62413 30.2883 1.68275H30.2896Z" fill="#EEEEEE"/>
</svg>
