<svg width="23" height="21" viewBox="0 0 23 21" fill="none" xmlns="http://www.w3.org/2000/svg">
<path d="M12.6733 3.55888L13.5604 2.76939C15.3026 1.21905 18.1388 1.18068 19.8909 2.72209C20.5548 3.30746 20.9961 4.0632 21.1526 4.88316C21.3091 5.70313 21.173 6.54612 20.7635 7.29373C20.567 7.65086 20.5009 8.05366 20.5741 8.44589C20.6475 8.83811 20.8566 9.20017 21.1723 9.48149C21.7529 8.9636 22.2131 8.34897 22.5267 7.67275C22.8403 6.99651 23.0011 6.27193 23 5.54038C22.9987 4.80884 22.8357 4.08466 22.52 3.40922C22.2042 2.73378 21.742 2.12033 21.1598 1.6039C18.7097 -0.564164 14.7328 -0.52102 12.2896 1.65313L3.83356 9.17806L3.13839 8.55942C1.36673 6.98279 1.35543 4.40562 3.15836 2.857C3.82572 2.28554 4.67595 1.91249 5.59171 1.78935C6.50746 1.66622 7.44358 1.79906 8.27088 2.16954C8.64849 2.34174 9.07758 2.40334 9.49688 2.34555C9.91618 2.28775 10.3042 2.11352 10.6056 1.84774L10.6272 1.82865C10.6339 1.82272 10.6392 1.81567 10.6428 1.80789C10.6465 1.80013 10.6483 1.79179 10.6483 1.78338C10.6483 1.77496 10.6465 1.76663 10.6428 1.75886C10.6392 1.75109 10.6339 1.74404 10.6272 1.7381C9.46332 0.728391 7.9037 0.16124 6.27831 0.156654C4.65293 0.15207 3.08929 0.71041 1.91827 1.71353C-0.604231 3.88058 -0.595217 7.48417 1.88405 9.69051L10.3375 17.2134L9.43956 18.0125C7.69744 19.5629 4.86113 19.6012 3.10908 18.0598C2.44516 17.4745 2.00396 16.7187 1.84744 15.8988C1.69093 15.0788 1.82695 14.2359 2.23642 13.4882C2.43286 13.1311 2.49907 12.7283 2.4258 12.3361C2.35252 11.9438 2.14341 11.5817 1.82769 11.3004C1.2471 11.8184 0.786853 12.4329 0.473253 13.1091C0.159651 13.7854 -0.00115899 14.5099 6.2878e-06 15.2416C0.00117157 15.9731 0.164289 16.6973 0.480045 17.3727C0.795799 18.0482 1.258 18.6616 1.84024 19.178C4.29019 21.3462 8.26723 21.3031 10.7104 19.1289L19.1774 11.5939L19.8752 12.2149C21.6173 13.7652 21.6604 16.2892 19.9283 17.8484C19.2706 18.4393 18.4213 18.8319 17.5 18.9712C16.5786 19.1105 15.6313 18.9894 14.7912 18.625C14.3898 18.4501 13.9369 18.3911 13.496 18.4565C13.0551 18.5217 12.6481 18.708 12.332 18.9892C12.914 19.5059 13.6046 19.9155 14.3644 20.1946C15.1244 20.4737 15.9385 20.6168 16.7607 20.6158C17.5827 20.6147 18.3965 20.4695 19.1554 20.1885C19.9144 19.9075 20.6038 19.4962 21.1841 18.978C23.6204 16.7978 23.572 13.2586 21.1289 11.0844L12.6733 3.55888ZM11.5999 16.0895L5.09623 10.3018L11.4105 4.68276L17.9142 10.4704L11.5999 16.0895Z" fill="#2B292A"/>
</svg>
